#!OML:ASF F:\VICON\USERDATA\INSTALL\rory3\rory3.ASF
:FULLY-SPECIFIED
:DEGREES
2144
root 7.85259 18.74 -6.53525 -164.24 -8.84124 184.83
lowerback 16.0561 -0.530651 -4.37844
upperback 6.89257 -2.63049 -4.14288
thorax -1.69776 -1.79782 -1.41567
lowerneck -11.004 8.72499 -5.02482
upperneck 17.8202 12.5812 -1.33022
head 7.04817 5.38046 1.48752
rclavicle -3.18055e-014 -1.1291e-013
rhumerus -0.19612 34.6779 -81.8899
rradius 112.057
rwrist -17.5793
rhand -38.7207 8.27102
rfingers 7.12502
rthumb -11.7344 -21.3803
lclavicle -3.18055e-014 -1.1291e-013
lhumerus 5.2627 -12.2104 85.4301
lradius 44.5622
lwrist 110.625
lhand -22.216 46.6301
lfingers 7.12502
lthumb 4.20018 436.568
rfemur -35.6019 23.5591 15.0627
rtibia 25.3199
rfoot -5.90315 8.85627
rtoes 7.26761
lfemur -27.0148 9.14006 -9.00434
ltibia 55.4795
lfoot -0.156066 9.66258
ltoes -19.9272
2145
root 7.82446 18.7418 -6.54276 -164.492 -8.54898 184.932
lowerback 16.4292 -0.542712 -3.92164
upperback 6.97118 -2.62063 -4.11394
thorax -1.82932 -1.79294 -1.63351
lowerneck -11.0476 8.73191 -5.14624
upperneck 17.8173 12.622 -1.35819
head 7.0489 5.38927 1.50233
rclavicle 2.38542e-014 1.90833e-014
rhumerus 0.094366 35.0707 -81.4851
rradius 112.245
rwrist -16.9732
rhand -38.879 8.69252
rfingers 7.12502
rthumb -11.887 -20.95
lclavicle 2.38542e-014 1.90833e-014
lhumerus 5.7206 -12.0966 85.3863
lradius 44.5735
lwrist 110.56
lhand -22.0864 46.5552
lfingers 7.12502
lthumb 4.32536 436.491
rfemur -35.234 23.7477 15.1384
rtibia 25.1518
rfoot -5.80416 9.09209
rtoes 7.33987
lfemur -27.4676 9.15928 -8.67824
ltibia 56.6933
lfoot 1.2235 8.77341
ltoes -19.6058
2146
root 7.80451 18.7449 -6.55104 -164.644 -8.44882 184.954
lowerback 16.6437 -0.621771 -3.56178
upperback 7.04134 -2.69444 -4.09894
thorax -1.88261 -1.8293 -1.80191
lowerneck -11.0382 8.78962 -5.0647
upperneck 17.8606 12.6998 -1.44354
head 7.07134 5.42104 1.47126
rclavicle -2.8625e-014 -7.95139e-015
rhumerus 0.406526 35.5552 -81.1111
rradius 112.471
rwrist -16.3556
rhand -38.863 9.12088
rfingers 7.12502
rthumb -11.8716 -20.5226
lclavicle -2.8625e-014 -7.95139e-015
lhumerus 6.19617 -11.9876 85.2177
lradius 44.5433
lwrist 110.596
lhand -22.2042 46.6588
lfingers 7.12502
lthumb 4.21162 436.597
rfemur -35.0038 24.012 15.0553
rtibia 25.0492
rfoot -5.77153 9.01681
rtoes 8.01423
lfemur -28.0477 9.02966 -8.36335
ltibia 57.8472
lfoot 2.62565 7.75904
ltoes -19.6649
2147
root 7.79401 18.7397 -6.55578 -164.737 -8.32864 185.019
lowerback 16.7338 -0.673192 -3.37423
upperback 7.10528 -2.74103 -4.02628
thorax -1.86705 -1.85379 -1.82127
lowerneck -10.9626 8.85245 -4.89994
upperneck 17.9388 12.77 -1.57858
head 7.10277 5.44716 1.40949
rclavicle 9.54166e-015 3.02153e-014
rhumerus 0.813705 36.1438 -80.7269
rradius 112.614
rwrist -15.6706
rhand -38.9383 9.56661
rfingers 7.12502
rthumb -11.9442 -20.0726
lclavicle 9.54166e-015 3.02153e-014
lhumerus 6.73041 -11.8897 84.9887
lradius 44.4151
lwrist 110.694
lhand -22.0512 46.6404
lfingers 7.12502
lthumb 4.35932 436.576
rfemur -34.9316 24.1875 15.0535
rtibia 25.0238
rfoot -5.6812 9.05887
rtoes 8.71002
lfemur -28.7354 8.97183 -7.98247
ltibia 58.9527
lfoot 3.96126 6.61303
ltoes -18.0281
2148
root 7.78574 18.7311 -6.55725 -164.753 -8.24328 184.996
lowerback 16.7654 -0.735368 -3.33353
upperback 7.17851 -2.81568 -3.89596
thorax -1.80203 -1.89493 -1.69451
lowerneck -10.9426 8.87416 -5.00046
upperneck 17.936 12.8192 -1.60634
head 7.09351 5.46131 1.41854
rclavicle -7.15625e-014 -1.1291e-013
rhumerus 1.42233 36.8202 -80.1249
rradius 112.684
rwrist -14.8857
rhand -39.0827 9.89453
rfingers 7.12502
rthumb -12.0834 -19.7366
lclavicle -7.15625e-014 -1.1291e-013
lhumerus 7.40112 -11.5753 84.9272
lradius 44.1267
lwrist 110.45
lhand -21.1662 46.307
lfingers 7.12502
lthumb 5.21389 436.223
rfemur -34.9206 24.0481 15.09
rtibia 25.0759
rfoot -5.69269 9.31457
rtoes 8.59338
lfemur -29.5362 8.80028 -7.69512
ltibia 60.028
lfoot 5.3291 5.46238
ltoes -13.293
2149
root 7.77185 18.7249 -6.55619 -164.848 -8.22242 184.94
lowerback 16.9245 -0.788632 -3.12378
upperback 7.1809 -2.86217 -3.86189
thorax -1.89085 -1.91429 -1.76277
lowerneck -10.5877 8.89111 -4.9003
upperneck 17.822 12.7866 -1.61137
head 7.00146 5.46121 1.37704
rclavicle -3.65764e-014 -3.02153e-014
rhumerus 1.63462 37.3443 -79.8174
rradius 112.828
rwrist -14.0247
rhand -39.316 10.2464
rfingers 7.12502
rthumb -12.3084 -19.3713
lclavicle -3.65764e-014 -3.02153e-014
lhumerus 7.87833 -11.3507 84.934
lradius 43.8788
lwrist 110.132
lhand -20.4012 46.0049
lfingers 7.12502
lthumb 5.95247 435.901
rfemur -34.8193 23.8837 15.1157
rtibia 25.1815
rfoot -5.74729 9.48066
rtoes 8.68615
lfemur -30.2212 8.50317 -7.43476
ltibia 61.0227
lfoot 6.46166 4.3187
ltoes -9.35025
2150
root 7.75379 18.7188 -6.55499 -165.016 -8.19413 185.048
lowerback 17.1311 -0.873791 -2.73738
upperback 7.27867 -2.93164 -3.77165
thorax -1.90867 -1.9491 -1.86806
lowerneck -10.6268 8.93574 -4.96213
upperneck 17.8165 12.8603 -1.59198
head 6.99999 5.49573 1.40012
rclavicle 4.77083e-015 -3.02153e-014
rhumerus 2.09554 37.9621 -79.3617
rradius 112.991
rwrist -13.1339
rhand -39.6291 10.3217
rfingers 7.12502
rthumb -12.6102 -19.2777
lclavicle 4.77083e-015 -3.02153e-014
lhumerus 8.45776 -10.8969 84.9351
lradius 43.7317
lwrist 109.899
lhand -20.1901 45.7593
lfingers 7.12502
lthumb 6.15633 435.65
rfemur -34.6388 23.6756 15.3564
rtibia 25.2961
rfoot -5.7608 9.74574
rtoes 8.9755
lfemur -30.7502 8.19195 -7.00857
ltibia 61.9051
lfoot 7.09237 3.0009
ltoes -8.56832
2151
root 7.7343 18.7156 -6.55411 -165.053 -8.18784 185.084
lowerback 17.1866 -0.961169 -2.38844
upperback 7.32845 -2.99045 -3.69479
thorax -1.89734 -1.97379 -1.9722
lowerneck -10.7369 8.93739 -5.0265
upperneck 18.0387 12.8656 -1.48992
head 7.0795 5.48798 1.45412
rclavicle -6.36111e-015 6.20208e-014
rhumerus 2.55738 38.5201 -78.8641
rradius 113.175
rwrist -12.3368
rhand -39.9842 10.6031
rfingers 7.12502
rthumb -12.9525 -18.9749
lclavicle -6.36111e-015 6.20208e-014
lhumerus 8.97783 -10.5192 84.9867
lradius 43.6772
lwrist 109.351
lhand -20.1616 45.4409
lfingers 7.12502
lthumb 6.18381 435.331
rfemur -34.6103 23.5471 15.4118
rtibia 25.4139
rfoot -5.81923 9.89296
rtoes 8.94811
lfemur -31.3843 7.82657 -6.67713
ltibia 62.6694
lfoot 7.57883 1.46687
ltoes -7.88615
2152
root 7.71376 18.7166 -6.5574 -165.108 -8.15966 185.108
lowerback 17.2206 -1.04328 -2.0688
upperback 7.35236 -3.04379 -3.63322
thorax -1.90192 -1.99446 -2.077
lowerneck -10.8533 8.93762 -5.03302
upperneck 18.3986 12.8488 -1.347
head 7.206 5.46709 1.51502
rclavicle -2.38542e-014 -6.67916e-014
rhumerus 2.93263 39.1068 -78.4927
rradius 113.339
rwrist -11.488
rhand -40.1072 10.7134
rfingers 7.12502
rthumb -13.0712 -18.857
lclavicle -2.38542e-014 -6.67916e-014
lhumerus 9.39518 -10.2842 84.9522
lradius 43.7562
lwrist 108.712
lhand -19.7697 44.9176
lfingers 7.12502
lthumb 6.56216 434.796
rfemur -34.5808 23.638 15.3782
rtibia 25.5439
rfoot -5.95894 9.83354
rtoes 8.8721
lfemur -31.9441 7.35851 -6.33888
ltibia 63.2968
lfoot 7.77929 0.228147
ltoes -5.95241
2153
root 7.69581 18.7124 -6.56063 -165.22 -7.94461 185.177
lowerback 17.2835 -1.05721 -1.85967
upperback 7.37819 -3.0331 -3.58085
thorax -1.91361 -1.98792 -2.14016
lowerneck -10.8197 8.96953 -5.00314
upperneck 18.5182 12.8728 -1.30414
head 7.23723 5.47626 1.52765
rclavicle 3.18055e-014 -2.22639e-014
rhumerus 3.30145 39.7842 -78.1941
rradius 113.495
rwrist -10.5404
rhand -40.2997 10.6812
rfingers 7.12502
rthumb -13.2567 -18.8772
lclavicle 3.18055e-014 -2.22639e-014
lhumerus 9.87949 -9.85022 84.9277
lradius 43.6753
lwrist 108.203
lhand -19.4934 44.5316
lfingers 7.12502
lthumb 6.82891 434.402
rfemur -34.5432 23.8137 15.3993
rtibia 25.7022
rfoot -6.06585 9.96297
rtoes 8.73283
lfemur -32.3541 7.04398 -5.97739
ltibia 63.8056
lfoot 7.37429 -0.962051
ltoes -5.69932
2154
root 7.67697 18.7106 -6.56224 -165.314 -7.67219 185.111
lowerback 17.3704 -1.06298 -1.80352
upperback 7.38463 -3.04399 -3.59028
thorax -1.95546 -1.99549 -2.17671
lowerneck -10.7599 9.01518 -4.92819
upperneck 18.6281 12.9079 -1.28354
head 7.26501 5.49225 1.52593
rclavicle 3.33958e-014 1.27222e-014
rhumerus 3.63323 40.5005 -77.9557
rradius 113.751
rwrist -9.8136
rhand -40.47 10.3576
rfingers 7.12502
rthumb -13.4209 -19.1901
lclavicle 3.33958e-014 1.27222e-014
lhumerus 10.3783 -9.05486 85.011
lradius 43.3491
lwrist 107.671
lhand -19.0904 44.551
lfingers 7.12502
lthumb 7.21794 434.408
rfemur -34.5715 23.9079 15.291
rtibia 25.9292
rfoot -6.09371 10.1322
rtoes 8.59433
lfemur -32.6372 6.6409 -5.78575
ltibia 64.1187
lfoot 6.47572 -2.18334
ltoes -5.60742
2155
root 7.65571 18.7095 -6.56336 -165.353 -7.50452 184.964
lowerback 17.4063 -1.08511 -1.77964
upperback 7.39793 -3.07572 -3.58262
thorax -1.96165 -2.01321 -2.17516
lowerneck -10.803 9.03698 -4.87243
upperneck 18.8498 12.9168 -1.22267
head 7.34371 5.49025 1.54647
rclavicle -6.20208e-014 -7.95139e-014
rhumerus 3.96078 41.2065 -77.6844
rradius 113.958
rwrist -9.01878
rhand -40.5072 10.5471
rfingers 7.12502
rthumb -13.4567 -18.9983
lclavicle -6.20208e-014 -7.95139e-014
lhumerus 10.8116 -8.17002 85.2182
lradius 43.1077
lwrist 107.092
lhand -18.0899 44.3021
lfingers 7.12502
lthumb 8.18356 434.124
rfemur -34.7284 24.0228 15.0351
rtibia 26.2728
rfoot -6.12992 10.1091
rtoes 8.58467
lfemur -32.898 6.08186 -5.68826
ltibia 64.1901
lfoot 5.31861 -3.19849
ltoes -4.41679
2156
root 7.62952 18.7106 -6.56786 -165.337 -7.24423 184.553
lowerback 17.2913 -1.04618 -2.01122
upperback 7.43668 -3.06893 -3.6149
thorax -1.85174 -2.01923 -2.08527
lowerneck -10.7195 9.02402 -4.88777
upperneck 18.9122 12.8851 -1.19177
head 7.34666 5.47247 1.55289
rclavicle -1.43125e-014 1.11319e-014
rhumerus 4.32792 41.8854 -77.3782
rradius 113.925
rwrist -7.95561
rhand -40.7935 10.4652
rfingers 7.12502
rthumb -13.7327 -19.0617
lclavicle -1.43125e-014 1.11319e-014
lhumerus 11.3089 -7.22961 85.5373
lradius 42.7933
lwrist 106.559
lhand -17.1208 44.1015
lfingers 7.12502
lthumb 9.11877 433.884
rfemur -34.8711 24.0494 14.4905
rtibia 26.5989
rfoot -6.1594 10.2515
rtoes 8.55091
lfemur -33.0271 5.45653 -5.9525
ltibia 64.0623
lfoot 4.00739 -3.8215
ltoes -2.77973
2157
root 7.5926 18.7249 -6.5843 -165.585 -6.79981 183.688
lowerback 17.3398 -0.932607 -2.57407
upperback 7.58497 -3.07543 -3.83089
thorax -1.70615 -2.05628 -1.99751
lowerneck -10.7222 9.00533 -4.94189
upperneck 18.9925 12.8467 -1.07481
head 7.36166 5.45647 1.59653
rclavicle -1.11319e-014 -2.22639e-014
rhumerus 4.65751 42.6091 -77.1635
rradius 113.799
rwrist -6.74542
rhand -40.7351 11.5893
rfingers 7.12502
rthumb -13.6763 -17.9413
lclavicle -1.11319e-014 -2.22639e-014
lhumerus 11.9239 -6.26659 85.8415
lradius 42.3022
lwrist 105.985
lhand -16.6004 44.0666
lfingers 7.12502
lthumb 9.62094 433.827
rfemur -34.5704 23.8393 13.7025
rtibia 27.0358
rfoot -6.3722 10.731
rtoes 8.35505
lfemur -32.5817 4.62857 -6.7945
ltibia 63.697
lfoot 2.3931 -4.02
ltoes -2.84131
